# xmcd
#
# Track frame offsets: 
#        150
#        10110
#        18460
#        34567
#        43100
#        51407
#        58900
#        67642
#        75872
#        86985
#        95762
#        108690
#
# Disc length: 1577 seconds
#
# Revision: 1
# Processed by: cddbd v1.5.2PL0 Copyright (c) Steve Scherf et al.
# Submitted via: ExactAudioCopy v1.0b3
#
DISCID=9606270c
DTITLE=Bossa Três - Os Reis Do Ritmo
DYEAR=1966
DGENRE=Brasil-Jazz
TTITLE0=Onde Anda O Meu Amor
TTITLE1=Até O Sol Raiar
TTITLE2=Não Me Diga Adeus
TTITLE3=Coisa Mais Linda
TTITLE4=É
TTITLE5=Samba De Verão
TTITLE6=Le Bateau
TTITLE7=Silk Stop
TTITLE8=Exaltação A Mangueira
TTITLE9=Balanço Zona Sul
TTITLE10=Recado Ao Pé Do Berço
TTITLE11=Cartaz
EXTD=YEAR: 1966
EXTT0=
EXTT1=
EXTT2=
EXTT3=
EXTT4=
EXTT5=
EXTT6=
EXTT7=
EXTT8=
EXTT9=
EXTT10=
EXTT11=
PLAYORDER=
